<?xml version="1.0" encoding="UTF-8" standalone="no"?>
<!-- Created with Inkscape (http://www.inkscape.org/) -->

<svg
   width="512"
   height="512"
   viewBox="0 0 512 512"
   version="1.1"
   id="svg1"
   inkscape:version="1.3 (1:1.3+202307231459+0e150ed6c4)"
   sodipodi:docname="logo.svg"
   xmlns:inkscape="http://www.inkscape.org/namespaces/inkscape"
   xmlns:sodipodi="http://sodipodi.sourceforge.net/DTD/sodipodi-0.dtd"
   xmlns="http://www.w3.org/2000/svg"
   xmlns:svg="http://www.w3.org/2000/svg">
  <sodipodi:namedview
     id="namedview1"
     pagecolor="#ffffff"
     bordercolor="#000000"
     borderopacity="0.25"
     inkscape:showpageshadow="2"
     inkscape:pageopacity="0.0"
     inkscape:pagecheckerboard="0"
     inkscape:deskcolor="#d1d1d1"
     inkscape:document-units="px"
     inkscape:zoom="1.1269531"
     inkscape:cx="217.40035"
     inkscape:cy="288.38821"
     inkscape:window-width="1696"
     inkscape:window-height="1368"
     inkscape:window-x="12"
     inkscape:window-y="54"
     inkscape:window-maximized="1"
     inkscape:current-layer="layer1" />
  <defs
     id="defs1" />
  <g
     inkscape:label="Layer 1"
     inkscape:groupmode="layer"
     id="layer1">
    <path
       id="rect1"
       style="fill:#21e429;stroke-width:3.03787;stroke-linecap:round"
       d="M 72.463111,1.0983608e-6 464.62202,0.04460553 359.9262,1.0983608e-6 464.00175,111.74993 l -2e-5,412.31693 v -86.00501 c -35.83633,25.94716 -33.87677,-6.96867 -66.81423,14.98455 -29.43326,19.61764 -42.47894,-5.38526 -67.15429,0.60245 -32.4651,7.87797 -36.27168,19.7919 -62.68328,20.60831 -25.86222,0.79941 -34.71524,-39.00472 -55.13706,-26.89167 -30.5729,18.13408 -62.51592,2.25657 -88.50293,-12.34664 -31.265292,-17.56928 -29.811574,23.28268 -50.925178,18.67129 0,0 -1.287433,-279.33075 -0.321651,-453.6901367049174 z"
       sodipodi:nodetypes="ccccccsssssccc" />
    <path
       style="fill:#e4b021;fill-opacity:0.682687;stroke:none;stroke-width:2.97835;stroke-linecap:round"
       d="m 348.75781,0 100.03708,111.74993 v 0 z"
       id="path2"
       sodipodi:nodetypes="cccc" />
    <path
       style="fill:#319e14;fill-opacity:1;stroke:none;stroke-width:3.03787;stroke-linecap:round"
       d="M 464.00173,111.74993 H 359.9262 V 12.476042 0 l 104.07553,111.74993 h 2e-5 z"
       id="path3" />
    <path
       style="fill:#248b11;fill-opacity:1;stroke:none;stroke-width:2.97835;stroke-linecap:round"
       d="m 348.75781,111.74993 c 0,0 -16.78628,-12.965042 0,0 z"
       id="path4" />
    <rect
       style="fill:#ffffff;fill-opacity:1;stroke:none;stroke-width:3.63595;stroke-linecap:round"
       id="rect4"
       width="234.44293"
       height="26.590702"
       x="112.73273"
       y="98.45459"
       rx="0" />
    <rect
       style="fill:#ffffff;fill-opacity:1;stroke:none;stroke-width:3.54452;stroke-linecap:round"
       id="rect4-5"
       width="311.26041"
       height="19.033768"
       x="112.73273"
       y="148.49062"
       rx="0" />
    <rect
       style="fill:#ffffff;fill-opacity:1;stroke:none;stroke-width:3.54452;stroke-linecap:round"
       id="rect4-5-2"
       width="311.26041"
       height="19.033768"
       x="112.73273"
       y="190.96973"
       rx="0" />
    <rect
       style="fill:#ffffff;fill-opacity:1;stroke:none;stroke-width:3.31788;stroke-linecap:round"
       id="rect4-5-2-7"
       width="272.72943"
       height="19.033768"
       x="151.2637"
       y="233.44887"
       rx="0" />
    <rect
       style="fill:#ffffff;fill-opacity:1;stroke:none;stroke-width:3.31788;stroke-linecap:round"
       id="rect4-5-2-7-6"
       width="272.72943"
       height="19.033768"
       x="151.2637"
       y="275.92801"
       rx="0" />
    <rect
       style="fill:#ffffff;fill-opacity:1;stroke:none;stroke-width:3.31788;stroke-linecap:round"
       id="rect4-5-2-7-6-6"
       width="272.72943"
       height="19.033768"
       x="151.2637"
       y="318.40707"
       rx="0" />
    <rect
       style="fill:#ffffff;fill-opacity:1;stroke:none;stroke-width:2.97835;stroke-linecap:round"
       id="rect5"
       width="2.4531481"
       height="5.7622414"
       x="306.12314"
       y="105.9877" />
    <ellipse
       style="fill:#ffffff;fill-opacity:1;stroke:none;stroke-width:3.03787;stroke-linecap:round"
       id="path5"
       cx="121.1347"
       cy="242.96574"
       rx="13.041028"
       ry="13.332996" />
    <ellipse
       style="fill:#ffffff;fill-opacity:1;stroke:none;stroke-width:3.03787;stroke-linecap:round"
       id="path5-9"
       cx="121.1347"
       cy="285.44482"
       rx="13.041028"
       ry="13.332996" />
    <ellipse
       style="fill:#ffffff;fill-opacity:1;stroke:none;stroke-width:3.03787;stroke-linecap:round"
       id="path5-9-3"
       cx="121.1347"
       cy="327.92392"
       rx="13.041028"
       ry="13.332996" />
  </g>
</svg>
